# xmcd
# 
# Track frame offsets:
#     150
#     16577
#     30482
#     45323
#     62699
#     75500
#     90121
#     106284
#     122940
#     138803
#     153171
#     169014
# 
# Disc length: 2439
# 
# Revision: 7
# Processed by: cddbd v1.5.2PL0 Copyright (c) Steve Scherf et al.
# Submitted via: fre:ac v1.0.31
# 
DISCID=7809850c
DTITLE=Florida Georgia Line - Anything Goes
DYEAR=2014
DGENRE=Country
TTITLE0=Anything Goes
TTITLE1=Sun Daze
TTITLE2=Good Good
TTITLE3=Dirt
TTITLE4=Smile
TTITLE5=Sippin' On Fire
TTITLE6=Smoke
TTITLE7=Bumpin' The Night
TTITLE8=Angel
TTITLE9=Confession
TTITLE10=Like You Ain't Even Gone
TTITLE11=Every Night
EXTD=YEAR: 2014
EXTT0=
EXTT1=
EXTT2=
EXTT3=
EXTT4=
EXTT5=
EXTT6=
EXTT7=
EXTT8=
EXTT9=
EXTT10=
EXTT11=
PLAYORDER=
